<svg id="login_illustration" xmlns="http://www.w3.org/2000/svg" width="672.614" height="402.099" viewBox="0 0 672.614 402.099">
  <path id="Tracciato_1" data-name="Tracciato 1" d="M827.369,666.409c-8.611-7.276-13.842-18.771-12.47-29.961s9.868-21.477,20.888-23.854,23.583,4.2,26.931,14.967c1.842-20.755,3.965-42.381,15-60.056,9.992-16,27.3-27.456,46.054-29.505s38.5,5.689,50.2,20.493,14.561,36.325,6.369,53.321c-6.035,12.52-17.154,21.838-28.8,29.419a185.9,185.9,0,0,1-127.143,27.815Z" transform="translate(-312.399 -268.827)" fill="#f2f2f2"/>
  <path id="Tracciato_2" data-name="Tracciato 2" d="M970.238,545.885A306.739,306.739,0,0,0,880.11,667.757c-.86,2.107,2.561,3.024,3.411.94a303.328,303.328,0,0,1,89.219-120.311c1.766-1.438-.75-3.928-2.5-2.5Z" transform="translate(-327.213 -270.593)" fill="#fff"/>
  <path id="Tracciato_3" data-name="Tracciato 3" d="M381.525,649.742c11.828-9.994,19.012-25.782,17.128-41.152s-13.553-29.5-28.69-32.763-32.392,5.771-36.989,20.557c-2.53-28.508-5.446-58.21-20.6-82.486-13.724-21.982-37.494-37.711-63.255-40.525s-52.885,7.814-68.951,28.147-20,49.893-8.748,73.237c8.289,17.2,23.561,29.995,39.562,40.407a255.33,255.33,0,0,0,174.63,38.2" transform="translate(-165 -254.137)" fill="#f2f2f2"/>
  <path id="Tracciato_4" data-name="Tracciato 4" d="M216.316,484.2a417.758,417.758,0,0,1,58.219,57.811,423.732,423.732,0,0,1,45.913,67.95,422.012,422.012,0,0,1,19.661,41.63c1.181,2.893-3.518,4.153-4.685,1.292a414.667,414.667,0,0,0-37.89-71.689,417.28,417.28,0,0,0-50.816-62.776,416.3,416.3,0,0,0-33.837-30.782c-2.426-1.975,1.03-5.395,3.436-3.436Z" transform="translate(-175.676 -256.562)" fill="#fff"/>
  <path id="Tracciato_5" data-name="Tracciato 5" d="M706.689,591.18H424.5V301.647A111.842,111.842,0,0,1,536.216,189.931h58.758A111.842,111.842,0,0,1,706.689,301.647Z" transform="translate(-223.875 -189.931)" fill="#f2f2f2"/>
  <path id="Tracciato_6" data-name="Tracciato 6" d="M647.932,591.181H424.5V301.648a110.851,110.851,0,0,1,21.335-65.672c.513-.7,1.025-1.39,1.553-2.073a111.69,111.69,0,0,1,23.777-23.078c.51-.371,1.022-.736,1.542-1.1A111.452,111.452,0,0,1,497.038,197c.511-.194,1.031-.388,1.551-.574a111.346,111.346,0,0,1,24.051-5.672c.508-.069,1.031-.124,1.553-.178a113.1,113.1,0,0,1,24.048,0c.521.054,1.043.109,1.557.179a111.324,111.324,0,0,1,24.044,5.671c.52.186,1.041.38,1.553.574a111.174,111.174,0,0,1,24.049,12.537c.519.357,1.039.721,1.551,1.086a112.873,112.873,0,0,1,14.213,12.033,111.55,111.55,0,0,1,9.838,11.249c.526.681,1.038,1.371,1.55,2.069a110.852,110.852,0,0,1,21.336,65.673Z" transform="translate(-223.875 -189.932)" fill="#ccc"/>
  <circle id="Ellisse_1" data-name="Ellisse 1" cx="12.37" cy="12.37" r="12.37" transform="translate(393.518 247.012)" fill="#6c63ff"/>
  <path id="Tracciato_7" data-name="Tracciato 7" d="M590.494,497.054h-9.478l-4.51-36.559H590.5Z" transform="translate(-130.797 -104.477)" fill="#ffb8b8"/>
  <path id="Tracciato_8" data-name="Tracciato 8" d="M570.2,504.28h18.28v11.509H558.7A11.509,11.509,0,0,1,570.2,504.28Z" transform="translate(-126.757 -114.411)" fill="#2f2e41"/>
  <path id="Tracciato_9" data-name="Tracciato 9" d="M651.494,497.054h-9.479l-4.51-36.559H651.5Z" transform="translate(-144.637 -104.477)" fill="#ffb8b8"/>
  <path id="Tracciato_10" data-name="Tracciato 10" d="M631.2,504.28h18.279v11.509H619.7A11.509,11.509,0,0,1,631.2,504.28Z" transform="translate(-140.596 -114.411)" fill="#2f2e41"/>
  <path id="Tracciato_11" data-name="Tracciato 11" d="M697.677,498.944a8.305,8.305,0,0,1,3.487-12.249l32.22-88.806,15.854,8.653L712.45,491.409a8.35,8.35,0,0,1-14.773,7.536Z" transform="translate(-285.528 -237.113)" fill="#ffb8b8"/>
  <path id="Tracciato_12" data-name="Tracciato 12" d="M810.751,518.937a8.305,8.305,0,0,1-2.237-12.537l-9.981-93.941,18.043.824,4.148,92.4a8.35,8.35,0,0,1-9.973,13.251Z" transform="translate(-308.736 -240.418)" fill="#ffb8b8"/>
  <circle id="Ellisse_2" data-name="Ellisse 2" cx="18.989" cy="18.989" r="18.989" transform="translate(454.243 106.352)" fill="#ffb8b8"/>
  <path id="Tracciato_13" data-name="Tracciato 13" d="M797.38,491.495H740.133l.069-.445c.1-.666,10.2-66.828,2.754-88.473a9.133,9.133,0,0,1,4.692-11.275h0c10.647-5.014,31.085-11.188,48.335,3.8a21.829,21.829,0,0,1,7.313,18.088Z" transform="translate(-295.486 -234.341)" fill="#6c63ff"/>
  <path id="Tracciato_14" data-name="Tracciato 14" d="M746.791,435.863l-25.773-5.229L733.1,402.006a10.821,10.821,0,1,1,20.956,5.41Z" transform="translate(-291.149 -236.204)" fill="#6c63ff"/>
  <path id="Tracciato_15" data-name="Tracciato 15" d="M796.533,446.159l-1.549-35.518c-1.175-6.677,2.647-12.989,8.526-14.02s11.621,3.6,12.8,10.329l5.824,33.188Z" transform="translate(-307.882 -236.792)" fill="#6c63ff"/>
  <path id="Tracciato_16" data-name="Tracciato 16" d="M794.57,517.049c9.211,35.082,10.216,79.685,7.731,128.338l-12.37-1.546-22.42-92.774-12.37,94.321-13.916-.773c-4.157-51.049-8.205-94.873-1.546-123.7Z" transform="translate(-294.581 -264.148)" fill="#2f2e41"/>
  <path id="Tracciato_17" data-name="Tracciato 17" d="M782.927,358.588c-3.542,3.773-10.121,1.748-10.583-3.407a6.221,6.221,0,0,1,.008-1.2c.238-2.283,1.558-4.357,1.242-6.768a3.549,3.549,0,0,0-.649-1.661c-2.823-3.78-9.449,1.691-12.113-1.731-1.634-2.1.287-5.4-.967-7.747-1.655-3.1-6.555-1.568-9.628-3.263-3.419-1.886-3.215-7.132-.964-10.323,2.745-3.892,7.558-5.968,12.311-6.267s9.473.986,13.91,2.715c5.042,1.965,10.041,4.68,13.144,9.113,3.773,5.391,4.136,12.639,2.249,18.943C789.738,350.822,785.82,355.506,782.927,358.588Z" transform="translate(-297.184 -218.573)" fill="#2f2e41"/>
  <path id="Tracciato_18" data-name="Tracciato 18" d="M837.206,709.034H266.416a.921.921,0,1,1,0-1.841h570.79a.921.921,0,0,1,0,1.841Z" transform="translate(-187.8 -307.287)" fill="#3f3d56"/>
  <path id="Tracciato_19" data-name="Tracciato 19" d="M603.031,531.686H502.525a5,5,0,0,1-5.025-4.96V302.39a5,5,0,0,1,5.025-4.96H603.031a5,5,0,0,1,5.025,4.96V526.726A5,5,0,0,1,603.031,531.686Z" transform="translate(-240.437 -214.32)" fill="#fff"/>
  <rect id="Rettangolo_7" data-name="Rettangolo 7" width="110.556" height="1.546" transform="translate(257.063 155.698)" fill="#ccc"/>
  <rect id="Rettangolo_8" data-name="Rettangolo 8" width="110.556" height="1.546" transform="translate(257.449 243.919)" fill="#ccc"/>
  <rect id="Rettangolo_9" data-name="Rettangolo 9" width="1.546" height="235.029" transform="translate(291.853 83.11)" fill="#ccc"/>
  <rect id="Rettangolo_10" data-name="Rettangolo 10" width="1.546" height="235.029" transform="translate(330.509 83.11)" fill="#ccc"/>
</svg>
